<?xml version="1.0" encoding="UTF-8" standalone="no"?>
<!-- Created with Inkscape (http://www.inkscape.org/) -->

<svg
   xmlns:dc="http://purl.org/dc/elements/1.1/"
   xmlns:cc="http://creativecommons.org/ns#"
   xmlns:rdf="http://www.w3.org/1999/02/22-rdf-syntax-ns#"
   xmlns:svg="http://www.w3.org/2000/svg"
   xmlns="http://www.w3.org/2000/svg"
   xmlns:sodipodi="http://sodipodi.sourceforge.net/DTD/sodipodi-0.dtd"
   xmlns:inkscape="http://www.inkscape.org/namespaces/inkscape"
   width="10.777069mm"
   height="7.6210966mm"
   viewBox="0 0 10.777069 7.6210966"
   version="1.1"
   id="svg4677"
   inkscape:version="0.92.0 r15299">
  <defs
     id="defs4671" />
  <sodipodi:namedview
     id="base"
     pagecolor="#ffffff"
     bordercolor="#666666"
     borderopacity="1.0"
     inkscape:pageopacity="0.0"
     inkscape:pageshadow="2"
     inkscape:zoom="19.25"
     inkscape:cx="5.7061954"
     inkscape:cy="19.443211"
     inkscape:document-units="mm"
     inkscape:current-layer="layer1"
     showgrid="false"
     inkscape:showpageshadow="true"
     showborder="true"
     borderlayer="false"
     fit-margin-top="0"
     fit-margin-left="0"
     fit-margin-right="0"
     fit-margin-bottom="0"
     inkscape:window-width="1920"
     inkscape:window-height="1027"
     inkscape:window-x="1912"
     inkscape:window-y="1072"
     inkscape:window-maximized="1" />
  <metadata
     id="metadata4674">
    <rdf:RDF>
      <cc:Work
         rdf:about="">
        <dc:format>image/svg+xml</dc:format>
        <dc:type
           rdf:resource="http://purl.org/dc/dcmitype/StillImage" />
        <dc:title></dc:title>
      </cc:Work>
    </rdf:RDF>
  </metadata>
  <g
     inkscape:label="Layer 1"
     inkscape:groupmode="layer"
     id="layer1"
     transform="translate(-57.506702,-106.04313)">
    <g
       style="display:inline;fill:#000000;fill-opacity:1"
       transform="rotate(45,-24.698316,141.19419)"
       id="g12585">
      <path
         style="font-style:normal;font-variant:normal;font-weight:normal;font-stretch:normal;font-size:medium;line-height:1.25;font-family:'Allerta Stencil';-inkscape-font-specification:'Allerta Stencil';letter-spacing:0px;word-spacing:0px;fill:#11a0be;fill-opacity:1;stroke:none;stroke-width:0.26458332"
         d="m 16.195272,50.591251 c 1.795369,1.795369 3.590739,3.590738 5.386108,5.386107 -0.292326,0.292326 -0.584652,0.584652 -0.876978,0.876978 -0.808769,-0.808769 -1.617537,-1.617537 -2.426306,-2.426306 -0.677222,0.677222 -1.354445,1.354444 -2.031667,2.031666 -0.199756,-0.199756 -0.399512,-0.399512 -0.599268,-0.599268 0.677222,-0.677222 1.354444,-1.354445 2.031666,-2.031667 -0.786844,-0.786844 -1.573689,-1.573688 -2.360533,-2.360532 0.292326,-0.292326 0.584652,-0.584652 0.876978,-0.876978 z"
         id="path12579"
         inkscape:connector-curvature="0" />
      <path
         style="font-style:normal;font-variant:normal;font-weight:normal;font-stretch:normal;font-size:medium;line-height:1.25;font-family:'Allerta Stencil';-inkscape-font-specification:'Allerta Stencil';letter-spacing:0px;word-spacing:0px;fill:#000000;fill-opacity:1;stroke:none;stroke-width:0.26458332"
         d="m 11.303197,55.483327 c -0.991405,0.943684 -1.5485791,2.427157 -1.105653,3.765697 0.366919,1.14944 1.319719,2.022925 2.359799,2.576066 0.733913,0.395391 1.621802,0.528514 2.418198,0.246537 0.905861,-0.245213 1.491447,-1.003666 2.136879,-1.625304 -0.005,-0.113299 -0.213176,-0.226597 -0.294528,-0.339896 -0.114855,-0.08849 -0.22971,-0.281565 -0.344566,-0.307245 -0.551824,0.544587 -1.101743,1.217256 -1.929876,1.288586 -0.998792,0.06369 -1.850329,-0.619254 -2.524053,-1.278013 -0.522145,-0.513268 -0.947037,-1.207703 -0.862644,-1.967948 0.06807,-0.886598 0.680403,-1.576808 1.281426,-2.176197 0.204741,-0.215863 0.409483,-0.431725 0.614224,-0.647588 -0.174271,-0.253696 -0.348543,-0.507392 -0.522814,-0.761088 -0.408797,0.408798 -0.817595,0.817595 -1.226392,1.226393 z"
         id="path12581"
         inkscape:connector-curvature="0" />
      <path
         style="font-style:normal;font-variant:normal;font-weight:normal;font-stretch:normal;font-size:medium;line-height:1.25;font-family:'Allerta Stencil';-inkscape-font-specification:'Allerta Stencil';letter-spacing:0px;word-spacing:0px;fill:#000000;fill-opacity:1;stroke:none;stroke-width:0.26458332"
         d="m 12.0954,54.691123 c 0.297198,-0.297198 0.594397,-0.594396 0.891595,-0.891594 1.795369,1.795369 3.590738,3.590738 5.386107,5.386107 -0.297198,0.297198 -0.594397,0.594397 -0.891595,0.891595 -1.795369,-1.795369 -3.590738,-3.590739 -5.386107,-5.386108 z"
         id="path12583"
         inkscape:connector-curvature="0" />
    </g>
  </g>
</svg>
