<?xml version="1.0" encoding="UTF-8" standalone="no"?>
<!-- Created with Inkscape (http://www.inkscape.org/) -->

<svg
   xmlns:dc="http://purl.org/dc/elements/1.1/"
   xmlns:cc="http://creativecommons.org/ns#"
   xmlns:rdf="http://www.w3.org/1999/02/22-rdf-syntax-ns#"
   xmlns:svg="http://www.w3.org/2000/svg"
   xmlns="http://www.w3.org/2000/svg"
   xmlns:sodipodi="http://sodipodi.sourceforge.net/DTD/sodipodi-0.dtd"
   xmlns:inkscape="http://www.inkscape.org/namespaces/inkscape"
   width="33.402386mm"
   height="33.245865mm"
   viewBox="0 0 33.402386 33.245865"
   version="1.1"
   id="svg5297"
   inkscape:version="0.92.0 r15299"
   sodipodi:docname="minified.svg">
  <defs
     id="defs5291" />
  <sodipodi:namedview
     id="base"
     pagecolor="#ffffff"
     bordercolor="#666666"
     borderopacity="1.0"
     inkscape:pageopacity="0.0"
     inkscape:pageshadow="2"
     inkscape:zoom="2.40625"
     inkscape:cx="40.006816"
     inkscape:cy="19.009769"
     inkscape:document-units="mm"
     inkscape:current-layer="g226"
     showgrid="false"
     inkscape:pagecheckerboard="true"
     inkscape:window-width="1920"
     inkscape:window-height="1027"
     inkscape:window-x="1912"
     inkscape:window-y="1072"
     inkscape:window-maximized="1" />
  <metadata
     id="metadata5294">
    <rdf:RDF>
      <cc:Work
         rdf:about="">
        <dc:format>image/svg+xml</dc:format>
        <dc:type
           rdf:resource="http://purl.org/dc/dcmitype/StillImage" />
        <dc:title></dc:title>
      </cc:Work>
    </rdf:RDF>
  </metadata>
  <g
     inkscape:label="Layer 1"
     inkscape:groupmode="layer"
     id="layer1"
     transform="translate(-81.600105,-110.16408)">
    <g
       style="display:inline;enable-background:new"
       id="g226"
       transform="matrix(0.16612915,0,0,0.16612915,81.479611,102.27306)">
      <path
         inkscape:export-ydpi="96"
         inkscape:export-xdpi="96"
         sodipodi:nodetypes="csscccc"
         inkscape:connector-curvature="0"
         id="path4793"
         d="m 0.88528435,226.39433 c 0,0 15.39861765,-18.52418 43.99499765,-22.13213 13.124444,-1.65589 97.809058,-8.13124 111.330778,-7.21591 28.25825,1.9129 40.71273,12.21933 45.44471,15.16219 l 1e-5,35.27916 H 0.85776728 Z"
         style="display:inline;fill:#006680;fill-opacity:0.99497483;stroke:#000000;stroke-width:0.26458332px;stroke-linecap:butt;stroke-linejoin:miter;stroke-opacity:1" />
      <path
         inkscape:export-ydpi="96"
         inkscape:export-xdpi="96"
         sodipodi:nodetypes="cczscsccc"
         inkscape:connector-curvature="0"
         id="path4788"
         d="m 73.793303,199.25228 0.248263,11.65182 c 0,0 4.368301,3.57708 8.196484,4.50306 3.828183,0.92597 21.24753,2.59487 36.82068,-9.11913 5.04757,-3.79675 10.01355,-8.6907 10.01355,-8.6907 0,0 -0.25813,-10.44775 -0.55743,-15.15233 -0.32579,-5.12088 1.17972,-18.31978 1.17972,-18.31978 l -36.906148,23.0783 c 0,0 -15.034705,7.82321 -18.995119,12.04876 z"
         style="fill:#e8c5ab;fill-opacity:1;stroke:#000000;stroke-width:0.26499999;stroke-linecap:butt;stroke-linejoin:miter;stroke-miterlimit:4;stroke-dasharray:none;stroke-opacity:1" />
      <path
         inkscape:export-ydpi="96"
         inkscape:export-xdpi="96"
         sodipodi:nodetypes="ccccc"
         inkscape:connector-curvature="0"
         id="path4553"
         d="m 42.080525,123.17296 10.301629,0.1107 1.758124,2.74332 -11.877491,1.75141 z"
         style="fill:#000000;stroke:#000000;stroke-width:0.26458332px;stroke-linecap:butt;stroke-linejoin:miter;stroke-opacity:1" />
      <g
         style="display:inline;opacity:1"
         inkscape:label="Ebene 2"
         id="layer2-0">
        <path
           inkscape:export-ydpi="96"
           inkscape:export-xdpi="96"
           inkscape:label="haut"
           sodipodi:nodetypes="csczsccccsssscccsc"
           inkscape:connector-curvature="0"
           id="path3694"
           d="m 55.683849,165.68157 c 2.972364,8.05588 7.704885,12.87217 8.239425,17.68302 0.534538,4.81085 0.221412,8.86575 2.626837,12.34026 2.405427,3.4745 9.53901,6.11753 14.407998,5.6585 4.868988,-0.45903 13.119975,-1.02148 18.868688,-5.8072 10.670753,-8.88325 22.582643,-15.62021 25.789883,-20.69833 3.20723,-5.07812 7.75081,-22.98518 7.75081,-22.98518 0,0 -0.26727,6.68174 2.6727,8.28536 2.93996,1.60362 6.1472,2.6727 8.55262,-0.53454 2.40543,-3.20723 0.53454,-2.93996 2.13816,-8.28535 1.60362,-5.34539 5.07812,-7.75082 5.61266,-13.36348 0.53454,-5.61266 -1.60362,-16.83798 -6.1472,-17.90706 -4.54358,-1.06908 -9.35443,2.40543 -10.95805,6.94901 -1.60362,4.54358 -4.16562,11.97044 -4.16562,11.97044 -0.22389,-25.18297 2.57334,-42.597817 -11.46408,-52.064806 -27.301782,-17.707315 -55.628329,-10.447963 -64.372721,7.817595 -6.315426,10.758301 -0.572286,20.915481 -3.853401,34.227281 -3.191849,12.94963 -0.678077,27.00673 4.301291,36.71448 z"
           style="display:inline;opacity:1;fill:#ffdac0;fill-opacity:1;stroke:#000000;stroke-width:0.26499999;stroke-linecap:butt;stroke-linejoin:miter;stroke-miterlimit:4;stroke-dasharray:none;stroke-opacity:1" />
        <path
           inkscape:export-ydpi="96"
           inkscape:export-xdpi="96"
           inkscape:label="haut schatten"
           sodipodi:nodetypes="csssccscccccccscczcc"
           inkscape:connector-curvature="0"
           id="path4561"
           d="m 52.44561,114.47905 c 0,0 2.609104,-7.49799 12.497572,-17.119203 9.888466,-9.621213 12.026514,-9.621213 25.122052,-9.621213 13.095536,0 31.268936,14.699076 33.406986,21.380476 2.13805,6.68139 4.54335,28.32912 2.4053,37.41582 -2.13804,9.0867 -2.54286,17.00941 -2.54286,17.00941 0,0 -0.9046,7.34886 -4.11167,12.69398 -3.20707,5.34512 -7.76941,7.93383 -7.76941,7.93383 l -8.27382,8.4415 c 0,0 12.97622,-9.29732 20.27336,-15.19256 4.06385,-4.25451 7.07392,-15.67721 9.91437,-25.54845 0.28277,5.20135 1.10751,7.56748 2.99243,8.31194 2.1889,1.17363 5.779,2.6123 8.12252,-0.58737 2.97044,-3.28326 -0.71766,-5.31832 4.60928,-13.62314 2.4408,-3.84104 3.50716,-7.50395 3.10336,-12.22318 -0.40379,-4.71922 -1.52608,-9.77652 -4.77267,-13.08072 -2.66489,-6.79029 -42.12359,-46.027073 -42.12359,-46.027073 0,0 -38.637123,-2.214706 -47.972432,6.681396 -9.33531,8.896103 -5.08356,28.292477 -5.08356,28.292477 z"
           style="display:inline;opacity:1;fill:#e8c5ab;fill-opacity:1;stroke:none;stroke-width:0.26499999;stroke-linecap:butt;stroke-linejoin:miter;stroke-miterlimit:4;stroke-dasharray:none;stroke-opacity:1" />
        <path
           inkscape:export-ydpi="96"
           inkscape:export-xdpi="96"
           sodipodi:nodetypes="czccscccc"
           inkscape:connector-curvature="0"
           id="path4501"
           d="m 69.823783,175.48065 c 1.184177,0.33845 11.058553,1.85645 15.397222,1.21836 4.33867,-0.6381 6.496783,-2.08394 10.060263,-4.95122 2.918589,-3.40178 3.181175,-8.36238 3.181175,-8.36238 0,0 -11.85677,-1.5119 -15.869831,-1.5119 H 67.270017 c 0,0 1.276743,1.70082 3.465789,4.72461 3.009856,3.68521 3.963103,6.87907 3.739493,9.28239 -1.904522,0.38261 -4.651516,-0.39986 -4.651516,-0.39986 z"
           style="opacity:1;fill:#280b0b;stroke:#000000;stroke-width:0.25993919px;stroke-linecap:butt;stroke-linejoin:miter;stroke-opacity:1" />
        <path
           inkscape:export-ydpi="96"
           inkscape:export-xdpi="96"
           sodipodi:nodetypes="cccszc"
           inkscape:connector-curvature="0"
           id="path4503"
           d="m 76.897309,176.39314 c 0,0 -5.184918,-1.73525 3.023613,-4.1921 8.208534,-2.45684 12.015232,-2.89019 14.204174,-2.32322 2.18894,0.56696 0.263064,2.46121 -2.06266,4.1621 -2.004913,1.46627 -4.863266,2.41039 -8.016623,2.67722 -3.153355,0.26683 -7.148504,-0.324 -7.148504,-0.324 z"
           style="display:inline;fill:#ffaaaa;stroke:#000000;stroke-width:0.25993919px;stroke-linecap:butt;stroke-linejoin:miter;stroke-opacity:1" />
        <path
           inkscape:export-ydpi="96"
           inkscape:export-xdpi="96"
           inkscape:connector-curvature="0"
           id="path4509"
           d="m 67.270015,161.87351 c 0,0 1.863561,3.83595 3.79614,4.69405 1.93258,0.85811 19.601878,3.00338 21.948582,1.5732 2.346704,-1.43018 5.447703,-4.75535 5.447703,-4.75535 0,0 -10.693276,-1.53744 -14.282351,-1.82348 -3.589078,-0.28603 -16.910074,0.31158 -16.910074,0.31158 z"
           style="fill:#ffffff;stroke:#000000;stroke-width:0.25993919px;stroke-linecap:butt;stroke-linejoin:miter;stroke-opacity:1" />
        <path
           inkscape:export-ydpi="96"
           inkscape:export-xdpi="96"
           sodipodi:nodetypes="csscscsc"
           inkscape:original-d="m 78.364772,127.34596 c -1.058069,4.52705 -2.784541,9.45524 -3.843139,13.98282 -1.058598,4.52758 -1.613961,3.50614 -2.554967,4.85872 -0.941007,1.35258 2.116931,4.70344 3.175,7.05555 1.058068,2.35212 3.057673,0.23492 4.58611,0.35278 1.52844,0.11786 3.175264,-2.6e-4 4.7625,0 1.587235,2.7e-4 2.116931,0.47011 3.175,0.70556 1.058069,0.23545 1.176192,-1.17619 1.76389,-1.76389"
           inkscape:connector-curvature="0"
           id="path4516"
           d="m 78.364772,127.34596 c 0.04936,4.8965 -1.298178,9.79936 -3.843139,13.98282 -0.955068,1.56996 -2.09237,3.08026 -2.554967,4.85872 -0.354011,1.361 -0.27902,2.84142 0.276636,4.13328 0.555656,1.29186 1.601064,2.37944 2.898364,2.92227 1.430143,0.59842 3.044891,0.52028 4.58611,0.35278 1.588691,-0.17266 3.222391,-0.4264 4.7625,0 0.528493,0.14632 1.032343,0.36996 1.5554,0.53465 0.523057,0.1647 1.080299,0.27025 1.6196,0.17091 0.434768,-0.0801 0.843731,-0.29496 1.15633,-0.60756 0.312599,-0.3126 0.527477,-0.72156 0.60756,-1.15633"
           style="display:inline;fill:none;stroke:#000000;stroke-width:0.69999999;stroke-linecap:butt;stroke-linejoin:miter;stroke-miterlimit:4;stroke-dasharray:none;stroke-opacity:1" />
        <path
           inkscape:export-ydpi="96"
           inkscape:export-xdpi="96"
           sodipodi:open="true"
           d="m 104.5986,131.89999 a 2.6458333,3.7041667 0 0 1 -2.63953,3.70416 2.6458333,3.7041667 0 0 1 -2.652107,-3.6865 2.6458333,3.7041667 0 0 1 2.626887,-3.72173 2.6458333,3.7041667 0 0 1 2.66463,3.66876"
           sodipodi:end="6.2736527"
           sodipodi:start="0"
           sodipodi:ry="3.7041667"
           sodipodi:rx="2.6458333"
           sodipodi:cy="131.89999"
           sodipodi:cx="101.95277"
           sodipodi:type="arc"
           id="path4520"
           style="display:inline;opacity:1;fill:#280b0b;fill-opacity:1;stroke-width:1.1114378;stroke-miterlimit:4;stroke-dasharray:none" />
        <path
           inkscape:export-ydpi="96"
           inkscape:export-xdpi="96"
           sodipodi:open="true"
           d="m 69.144446,131.54721 a 2.5576389,3.7041667 0 0 1 -2.548153,3.70414 2.5576389,3.7041667 0 0 1 -2.567054,-3.67666 2.5576389,3.7041667 0 0 1 2.529111,-3.73142 2.5576389,3.7041667 0 0 1 2.585815,3.64899"
           sodipodi:end="6.26835"
           sodipodi:start="0"
           sodipodi:ry="3.7041667"
           sodipodi:rx="2.5576389"
           sodipodi:cy="131.54721"
           sodipodi:cx="66.586807"
           sodipodi:type="arc"
           id="path4522"
           style="opacity:1;fill:#280b0b;fill-opacity:1;stroke-width:1;stroke-miterlimit:4;stroke-dasharray:none" />
        <g
           inkscape:export-ydpi="96"
           inkscape:export-xdpi="96"
           style="display:inline"
           inkscape:label="brille"
           id="g4532">
          <path
             style="display:inline;fill:none;stroke:#000000;stroke-width:1.26499999;stroke-linecap:butt;stroke-linejoin:miter;stroke-miterlimit:4;stroke-dasharray:none;stroke-opacity:1"
             d="m 121.80988,129.60693 c -0.24053,5.01907 -0.20585,8.53374 -3.20172,11.20338 -7.53636,1.21682 -19.219783,2.28552 -28.350501,-0.75901 -2.469446,-2.99861 -3.650717,-11.85547 -3.650717,-11.85547 l -7.937499,-0.17639 c 0,0 -1.940277,11.28889 -4.586111,12.52361 -2.645833,1.23473 -25.929166,0 -27.340276,-1.76388 -1.411113,-1.76389 -4.589488,-12.85002 -2.116667,-15.69862 2.472821,-2.8486 26.658621,-2.19519 30.515277,-0.88194 3.856656,1.31325 9.292331,2.42104 15.062542,0.30467 5.770211,-2.11636 27.579252,-0.7202 30.798572,1.45922 z"
             id="path4524"
             inkscape:connector-curvature="0"
             sodipodi:nodetypes="ccccccczzzcc" />
          <path
             style="display:inline;fill:#000000;stroke:#000000;stroke-width:0.26458332px;stroke-linecap:butt;stroke-linejoin:miter;stroke-opacity:1"
             d="m 76.034301,123.15004 2.234258,5.00303 c 3.912626,0.47569 8.338383,0.0428 8.338383,0.0428 0,0 0.935396,-1.06902 2.188826,-4.51128 -4.742343,1.14576 -9.113619,0.13881 -12.761467,-0.53451 z"
             id="path4528"
             inkscape:connector-curvature="0"
             sodipodi:nodetypes="ccccc" />
          <path
             sodipodi:nodetypes="ccccccc"
             style="display:inline;fill:#000000;stroke:#000000;stroke-width:0.26458332px;stroke-linecap:butt;stroke-linejoin:miter;stroke-opacity:1"
             d="m 126.3479,123.42799 7.5473,-3.08413 -0.13363,4.27609 -7.14108,2.98256 -4.88004,0.18442 -0.63604,-4.25071 z"
             id="path4538"
             inkscape:connector-curvature="0" />
        </g>
        <path
           inkscape:export-ydpi="96"
           inkscape:export-xdpi="96"
           inkscape:label="haare"
           sodipodi:nodetypes="csssccsccccccccccccscssscscccccccccscccccscccccc"
           inkscape:connector-curvature="0"
           id="path4536"
           d="m 111.49729,61.532846 c 0,0 -12.283603,-4.346504 -23.055375,-4.913439 -10.771772,-0.566936 -16.441126,2.456719 -18.708867,3.779567 -2.267741,1.322851 -14.55134,7.937095 -16.441123,13.039513 -1.889787,5.102418 -1.889787,5.669354 -1.889787,5.669354 l 3.023656,-1.133869 c 0,0 -3.212635,5.102418 -4.346504,7.937095 -1.133872,2.834677 -3.77957,9.6379 -3.77957,9.6379 l 3.968549,-5.480375 -3.968549,8.315052 3.77957,-3.401613 -1.511829,4.157528 1.322851,-0.377957 -2.078763,9.259938 2.645699,-3.96854 -1.133872,6.9922 c 0,0 -0.631782,1.44305 2.580852,0.1202 0.420913,-2.7913 -0.07428,-5.83699 0.402513,-7.30138 0.566936,-2.07876 2.968305,-8.288191 2.968305,-8.288191 0,0 4.064188,-6.452128 5.953973,-8.908848 1.889785,-2.45672 2.825181,-2.267741 2.825181,-2.267741 0,0 8.513527,-4.91344 17.584492,-6.04731 9.070966,-1.133871 16.481991,-1.371364 25.134138,2.645697 5.2914,2.45672 10.77177,3.401612 15.87418,12.2836 5.10242,8.881993 6.61425,13.795423 7.18119,17.386013 0.56693,3.5906 0.94489,5.48038 0.75591,12.85054 -0.18898,7.37016 -0.37795,16.6301 -0.37795,16.6301 l 0.77687,-1.91434 0.73495,3.61515 1.2675,-4.86759 1.56718,1.84393 -0.0324,-9.62644 c 0,0 0.59937,-2.27919 2.86711,-5.49183 2.26774,-3.21263 5.85833,-4.34651 8.31505,-3.21263 2.45672,1.13387 2.83467,-1.51183 2.83467,-1.51183 0,0 2.26775,-2.6457 1.88979,-5.10242 -0.37796,-2.45672 -0.94489,-4.91344 -0.94489,-4.91344 l 2.45672,4.72446 -1.51183,-10.20484 -1.51183,-5.102415 3.40161,6.425265 c 0,0 0.56694,-5.669351 -2.07876,-9.826877 -2.6457,-4.157526 -6.04731,-9.637901 -6.04731,-9.637901 l 3.77957,3.401612 c 0,0 -2.26774,-7.37016 -5.48038,-9.82688 -3.21263,-2.456719 -10.58279,-5.858332 -10.58279,-5.858332 l -8.50403,-6.992202 z"
           style="display:inline;fill:#5c3c1f;fill-opacity:1;stroke:#000000;stroke-width:0.26458332px;stroke-linecap:butt;stroke-linejoin:miter;stroke-opacity:1" />
        <g
           transform="translate(2.6725589,-0.93539562)"
           id="g4541" />
        <path
           inkscape:export-ydpi="96"
           inkscape:export-xdpi="96"
           sodipodi:nodetypes="ccc"
           inkscape:connector-curvature="0"
           id="path4557"
           d="m 94.34133,155.08712 c 0,0 5.345115,3.47433 8.55219,7.75042 2.67255,4.2761 0.80176,6.14689 0.80176,6.14689"
           style="fill:none;fill-opacity:1;stroke:#caad98;stroke-width:0.5;stroke-linecap:butt;stroke-linejoin:miter;stroke-miterlimit:4;stroke-dasharray:none;stroke-opacity:1" />
        <path
           inkscape:export-ydpi="96"
           inkscape:export-xdpi="96"
           inkscape:connector-curvature="0"
           id="path4559"
           d="m 70.421928,152.94907 c 0,0 -6.547771,5.21149 -7.483166,6.94866"
           style="fill:none;stroke:#caad98;stroke-width:0.5;stroke-linecap:butt;stroke-linejoin:miter;stroke-miterlimit:4;stroke-dasharray:none;stroke-opacity:1" />
        <g
           inkscape:export-ydpi="96"
           inkscape:export-xdpi="96"
           inkscape:label="Augenbrauen"
           id="g4659">
          <path
             style="fill:#87582d;fill-opacity:1;stroke:#000000;stroke-width:0.2;stroke-linecap:butt;stroke-linejoin:miter;stroke-miterlimit:4;stroke-dasharray:none;stroke-opacity:1"
             d="m 93.405934,118.87395 c -0.926007,0.15044 -0.619616,-2.36116 0.417555,-2.78329 1.474689,-0.6002 21.017771,0.7257 22.431191,2.88448 -4.97591,0.26539 -14.85749,-1.39946 -22.848746,-0.10119 z"
             id="path4653"
             inkscape:connector-curvature="0"
             sodipodi:nodetypes="sscs" />
          <path
             style="fill:#87582d;fill-opacity:1;stroke:#000000;stroke-width:0.2;stroke-linecap:butt;stroke-linejoin:miter;stroke-miterlimit:4;stroke-dasharray:none;stroke-opacity:1"
             d="m 56.794263,117.50396 c 0.204928,-1.47981 14.080066,-1.42271 16.982954,-1.09477 1.730071,0.19544 2.219046,3.31892 0.344372,2.78876 -5.491659,-1.23626 -15.534624,-1.92053 -17.327326,-1.69399 z"
             id="path4655"
             inkscape:connector-curvature="0"
             sodipodi:nodetypes="cscc" />
        </g>
        <path
           inkscape:export-ydpi="96"
           inkscape:export-xdpi="96"
           inkscape:connector-curvature="0"
           id="path4783"
           d="m 84.452861,58.74137 c 0,0 -11.358374,2.405303 -16.83712,5.478748 -5.478748,3.073443 -11.759261,8.284933 -12.694655,10.155722 -0.935398,1.870792 2.806186,0.400886 2.806186,0.400886 0,0 -3.741584,5.746001 -4.54335,8.685816 -0.801767,2.939814 -2.00442,6.41414 -1.469906,8.552187 0.534511,2.138048 2.939814,-1.603536 2.939814,-1.603536 0,0 3.073442,-11.62563 6.146885,-13.897306 3.073442,-2.271675 16.168981,-8.017676 21.914982,-7.349537 5.746001,0.668142 22.850383,4.142467 26.458333,6.948654 3.60796,2.806187 16.43624,13.63005 18.1734,17.371634 1.73716,3.741581 4.67698,9.621212 5.61237,14.030932 0.9354,4.40972 0.26726,8.41856 1.60354,9.48758 1.33628,1.06903 2.80619,-0.13362 2.80619,-0.13362 0,0 1.4699,-2.13805 2.67256,-2.13805 1.20265,0 4.54335,2.53893 5.87962,1.33628 1.33629,-1.20265 2.00442,-11.62563 0.13363,-13.22917 -1.87079,-1.60353 -4.94423,-4.40972 -8.28493,-6.681393 -3.3407,-2.271676 -6.54777,-8.418563 -5.34512,-10.289352 1.20266,-1.870792 6.81503,-0.133628 7.88405,-2.138048 1.06902,-2.00442 -2.13805,-4.944234 -4.67698,-5.879629 -2.53893,-0.935397 -6.41414,-4.810606 -9.35395,-6.815026 -2.93982,-2.00442 -21.11322,-9.353955 -24.45392,-9.888469 C 98.483794,60.612162 84.452861,58.74137 84.452861,58.74137 Z"
           style="fill:#694423;fill-opacity:1;stroke:none;stroke-width:0.26458332px;stroke-linecap:butt;stroke-linejoin:miter;stroke-opacity:1" />
      </g>
    </g>
  </g>
</svg>
